<svg xmlns="http://www.w3.org/2000/svg" version="1.1" width="100" height="100" viewBox="0 0 100 100"><rect x="0" y="0" width="100" height="100" fill="#ffffff"/><g transform="scale(4.762)"><g transform="translate(0,0)"><path fill-rule="evenodd" d="M8 0L8 4L9 4L9 5L8 5L8 7L9 7L9 5L10 5L10 7L11 7L11 5L12 5L12 7L13 7L13 2L12 2L12 1L13 1L13 0L12 0L12 1L11 1L11 2L10 2L10 1L9 1L9 0ZM9 3L9 4L10 4L10 3ZM11 3L11 4L12 4L12 3ZM0 8L0 10L1 10L1 9L2 9L2 13L5 13L5 11L7 11L7 12L6 12L6 13L8 13L8 14L10 14L10 15L8 15L8 17L9 17L9 16L10 16L10 15L11 15L11 17L10 17L10 18L9 18L9 19L8 19L8 21L10 21L10 20L11 20L11 19L13 19L13 16L12 16L12 14L15 14L15 15L14 15L14 16L15 16L15 18L16 18L16 20L18 20L18 21L21 21L21 19L20 19L20 20L19 20L19 19L17 19L17 16L18 16L18 18L21 18L21 17L20 17L20 16L18 16L18 14L20 14L20 15L21 15L21 12L20 12L20 11L21 11L21 10L20 10L20 9L21 9L21 8L17 8L17 9L18 9L18 10L16 10L16 8L15 8L15 9L13 9L13 8L12 8L12 11L10 11L10 9L9 9L9 10L8 10L8 9L7 9L7 8L4 8L4 9L2 9L2 8ZM4 9L4 10L3 10L3 11L5 11L5 10L7 10L7 9ZM14 10L14 13L15 13L15 10ZM18 10L18 11L16 11L16 13L17 13L17 14L18 14L18 11L20 11L20 10ZM0 11L0 12L1 12L1 11ZM8 11L8 13L9 13L9 12L10 12L10 11ZM12 12L12 13L10 13L10 14L12 14L12 13L13 13L13 12ZM19 12L19 13L20 13L20 12ZM15 15L15 16L17 16L17 15ZM11 17L11 18L10 18L10 19L11 19L11 18L12 18L12 17ZM14 19L14 20L12 20L12 21L14 21L14 20L15 20L15 19ZM0 0L0 7L7 7L7 0ZM1 1L1 6L6 6L6 1ZM2 2L2 5L5 5L5 2ZM14 0L14 7L21 7L21 0ZM15 1L15 6L20 6L20 1ZM16 2L16 5L19 5L19 2ZM0 14L0 21L7 21L7 14ZM1 15L1 20L6 20L6 15ZM2 16L2 19L5 19L5 16Z" fill="#000000"/></g></g></svg>